<svg xmlns="http://www.w3.org/2000/svg" width="18" height="18" viewBox="0 0 18 18" fill="none">
<path d="M11.1854 9.99911C11.1854 9.77554 11.3667 9.59442 11.5905 9.59442H13.0041C13.2276 9.59442 13.4089 9.77554 13.4089 9.99911V11.4125C13.4089 11.6364 13.2276 11.8176 13.0041 11.8176H11.5905C11.3667 11.8176 11.1854 11.6364 11.1854 11.4125V9.99911Z" fill="#2C4799"/>
<path d="M7.6527 9.99911C7.6527 9.77554 7.83408 9.59442 8.05739 9.59442H9.47117C9.69466 9.59442 9.87604 9.77554 9.87604 9.99911V11.4125C9.87604 11.6364 9.69466 11.8176 9.47117 11.8176H8.05739C7.83408 11.8176 7.6527 11.6364 7.6527 11.4125V9.99911Z" fill="#2C4799"/>
<path d="M4.11977 9.99911C4.11977 9.77554 4.30114 9.59442 4.52463 9.59442H5.93824C6.16198 9.59442 6.34332 9.77554 6.34332 9.99911V11.4125C6.34332 11.6364 6.16198 11.8176 5.93824 11.8176H4.52463C4.30114 11.8176 4.11977 11.6364 4.11977 11.4125V9.99911Z" fill="#2C4799"/>
<path d="M11.1854 13.5322C11.1854 13.3083 11.3667 13.1273 11.5905 13.1273H13.0041C13.2276 13.1273 13.4089 13.3083 13.4089 13.5322V14.9454C13.4089 15.1691 13.2276 15.3503 13.0041 15.3503H11.5905C11.3667 15.3503 11.1854 15.1691 11.1854 14.9454V13.5322Z" fill="#2C4799"/>
<path d="M7.6527 13.5322C7.6527 13.3083 7.83408 13.1273 8.05739 13.1273H9.47117C9.69466 13.1273 9.87604 13.3083 9.87604 13.5322V14.9454C9.87604 15.1691 9.69466 15.3503 9.47117 15.3503H8.05739C7.83408 15.3503 7.6527 15.1691 7.6527 14.9454V13.5322Z" fill="#2C4799"/>
<path d="M4.11977 13.5322C4.11977 13.3083 4.30114 13.1273 4.52445 13.1273H5.93824C6.16198 13.1273 6.34332 13.3083 6.34332 13.5322V14.9454C6.34332 15.1691 6.16198 15.3503 5.93824 15.3503H4.52445C4.30114 15.3503 4.11977 15.1691 4.11977 14.9454V13.5322Z" fill="#2C4799"/>
<path d="M1.59203 2.1402V4.29908C1.59203 5.27487 2.38363 6.06121 3.35928 6.06121H4.47411C5.44983 6.06121 6.25192 5.27487 6.25192 4.29908V2.13245H11.2768V4.29908C11.2768 5.27487 12.0788 6.06121 13.0544 6.06121H14.1694C15.1451 6.06121 15.9366 5.27487 15.9366 4.29908V2.1402C16.7893 2.1659 17.49 2.87148 17.49 3.73872V16.3908C17.49 17.2743 16.7738 18 15.8903 18H1.63839C0.756153 18 0.0386944 17.2728 0.0386944 16.3908V3.73872C0.0386944 2.87148 0.739334 2.1659 1.59203 2.1402ZM2.10983 15.6029C2.10983 15.9848 2.41942 16.2945 2.8014 16.2945H14.7577C15.1397 16.2945 15.4493 15.9848 15.4493 15.6029V9.06767C15.4493 8.68569 15.1398 8.37591 14.7577 8.37591H2.80144C2.41946 8.37591 2.10987 8.68569 2.10987 9.06767L2.10983 15.6029Z" fill="#2C4799"/>
<path d="M14.1733 4.90383H13.0706C12.7359 4.90383 12.4645 4.63285 12.4645 4.29814V0.758928C12.4645 0.424182 12.7359 0.153015 13.0706 0.153015H14.1733C14.508 0.153015 14.7794 0.424182 14.7794 0.758928V4.29814C14.7794 4.63285 14.508 4.90383 14.1733 4.90383Z" fill="#2C4799"/>
<path d="M4.48827 4.90383H3.38554C3.05105 4.90383 2.77966 4.63285 2.77966 4.29814V0.758928C2.77963 0.424182 3.05102 0.153015 3.38554 0.153015H4.48827C4.82294 0.153015 5.09433 0.424182 5.09433 0.758928V4.29814C5.09433 4.63285 4.82294 4.90383 4.48827 4.90383Z" fill="#2C4799"/>
</svg>